<?xml version="1.0" encoding="UTF-8" standalone="no"?><!DOCTYPE svg PUBLIC "-//W3C//DTD SVG 1.1//EN" "http://www.w3.org/Graphics/SVG/1.1/DTD/svg11.dtd"><svg width="100%" height="100%" viewBox="0 0 7225 2509" version="1.1" xmlns="http://www.w3.org/2000/svg" xmlns:xlink="http://www.w3.org/1999/xlink" xml:space="preserve" xmlns:serif="http://www.serif.com/" style="fill-rule:evenodd;clip-rule:evenodd;stroke-linejoin:round;stroke-miterlimit:2;"><g><path id="pZnDedr5u" d="M886.865,2479.43c-3.004,-0.644 -15.882,-2.361 -28.975,-4.293c-80.486,-11.59 -155.392,-45.072 -224.288,-100.232c-8.8,-7.297 -83.921,-80.701 -166.768,-163.334c-142.3,-141.87 -158.183,-157.538 -173.851,-174.065c-60.096,-63.53 -96.154,-127.275 -117.617,-206.903c-28.76,-106.457 -17.814,-223.43 30.048,-321.087c19.532,-39.921 37.561,-68.038 68.253,-104.954l161.187,-162.046l118.691,-118.691l117.188,-116.973c53.872,-53.872 81.774,-80.272 85.852,-81.345c3.434,-0.644 10.517,-0.859 16.097,-0.215c9.229,0.859 11.376,2.361 23.824,15.668c36.273,39.063 77.052,115.901 92.506,175.139c12.448,47.433 15.453,71.042 15.668,124.056c0.214,40.78 -0.43,52.37 -4.508,74.262c-16.526,91.647 -52.155,166.982 -109.676,232.659c-23.609,26.829 -257.127,258.63 -293.614,294.687c-66.535,65.677 -75.979,76.838 -84.564,98.945c-6.224,15.668 -6.868,19.746 -7.083,40.994c-0.215,20.82 0.429,25.541 5.795,39.707c13.307,36.487 42.926,63.316 79.199,71.901c27.902,6.654 48.506,3.649 84.349,-11.805c64.175,-27.687 125.559,-40.779 192.738,-40.779c30.907,-0 41.424,1.073 81.989,7.726c39.707,6.654 96.154,26.185 134.144,46.361c55.375,29.619 72.76,44.213 173.207,144.016c75.12,74.906 86.496,86.926 88.642,94.867c5.151,18.673 -0.859,28.331 -34.126,53.228c-82.848,62.458 -179.86,94.438 -284.385,93.579c-18.888,-0.214 -36.917,-0.644 -39.922,-1.073Z" style="fill:#fff;fill-rule:nonzero;"/><path id="pZnDedr5u1" serif:id="pZnDedr5u" d="M2469.51,1596.14c-0.643,3.005 -2.361,15.883 -4.292,28.975c-11.59,80.486 -45.073,155.392 -100.233,224.289c-7.297,8.799 -80.7,83.92 -163.333,166.767c-141.871,142.3 -157.539,158.183 -174.065,173.851c-63.531,60.096 -127.276,96.154 -206.904,117.617c-106.456,28.761 -223.43,17.815 -321.087,-30.048c-39.921,-19.531 -68.037,-37.56 -104.954,-68.252l-162.046,-161.188l-118.69,-118.69l-116.974,-117.188c-53.872,-53.873 -80.271,-81.775 -81.345,-85.853c-0.644,-3.434 -0.858,-10.516 -0.214,-16.097c0.858,-9.229 2.361,-11.375 15.668,-23.824c39.062,-36.272 115.9,-77.052 175.138,-92.505c47.433,-12.449 71.043,-15.454 124.056,-15.668c40.78,-0.215 52.37,0.429 74.262,4.507c91.648,16.526 166.983,52.155 232.66,109.676c26.828,23.609 258.629,257.127 294.687,293.614c65.677,66.535 76.838,75.979 98.944,84.564c15.668,6.225 19.746,6.869 40.995,7.083c20.819,0.215 25.541,-0.429 39.706,-5.795c36.488,-13.307 63.316,-42.926 71.902,-79.198c6.653,-27.902 3.648,-48.507 -11.805,-84.35c-27.687,-64.174 -40.78,-125.559 -40.78,-192.738c0,-30.907 1.073,-41.424 7.727,-81.989c6.653,-39.706 26.185,-96.154 46.36,-134.144c29.619,-55.374 44.214,-72.759 144.017,-173.206c74.906,-75.121 86.925,-86.496 94.866,-88.643c18.673,-5.151 28.332,0.859 53.229,34.127c62.457,82.847 94.437,179.86 93.579,284.385c-0.215,18.887 -0.644,36.916 -1.074,39.921Z" style="fill:#fff;fill-rule:nonzero;"/><path id="pZnDedr5u2" serif:id="pZnDedr5u" d="M1588.18,11.726c3.005,0.644 15.882,2.361 28.975,4.293c80.486,11.59 155.392,45.072 224.288,100.232c8.8,7.298 83.921,80.701 166.768,163.334c142.3,141.87 158.183,157.538 173.851,174.065c60.096,63.53 96.154,127.276 117.617,206.903c28.76,106.457 17.814,223.431 -30.048,321.087c-19.532,39.922 -37.56,68.038 -68.253,104.954l-161.187,162.046l-118.69,118.691l-117.189,116.973c-53.872,53.873 -81.774,80.272 -85.852,81.345c-3.434,0.644 -10.517,0.859 -16.097,0.215c-9.229,-0.859 -11.375,-2.361 -23.824,-15.668c-36.272,-39.063 -77.052,-115.9 -92.506,-175.138c-12.448,-47.434 -15.453,-71.043 -15.668,-124.057c-0.214,-40.779 0.43,-52.37 4.508,-74.262c16.526,-91.647 52.155,-166.982 109.676,-232.659c23.609,-26.829 257.127,-258.629 293.614,-294.687c66.535,-65.677 75.979,-76.838 84.564,-98.945c6.225,-15.668 6.868,-19.746 7.083,-40.994c0.215,-20.819 -0.429,-25.541 -5.795,-39.707c-13.307,-36.487 -42.926,-63.316 -79.199,-71.901c-27.901,-6.654 -48.506,-3.649 -84.349,11.805c-64.175,27.687 -125.559,40.779 -192.738,40.779c-30.907,0 -41.424,-1.073 -81.989,-7.726c-39.707,-6.654 -96.154,-26.185 -134.144,-46.36c-55.374,-29.619 -72.76,-44.214 -173.206,-144.017c-75.121,-74.906 -86.496,-86.926 -88.643,-94.867c-5.151,-18.673 0.859,-28.331 34.126,-53.228c82.848,-62.458 179.861,-94.438 284.386,-93.579c18.887,0.215 36.916,0.644 39.921,1.073Z" style="fill:#fff;fill-rule:nonzero;"/><path id="pZnDedr5u3" serif:id="pZnDedr5u" d="M4.359,894.888c0.644,-3.005 2.361,-15.883 4.293,-28.975c11.59,-80.487 45.072,-155.393 100.232,-224.289c7.297,-8.8 80.701,-83.92 163.334,-166.768c141.87,-142.3 157.538,-158.182 174.065,-173.85c63.53,-60.097 127.275,-96.155 206.903,-117.618c106.457,-28.76 223.43,-17.814 321.087,30.049c39.921,19.531 68.038,37.56 104.954,68.252l162.046,161.187l118.691,118.691l116.973,117.188c53.872,53.872 80.272,81.774 81.345,85.852c0.644,3.434 0.859,10.517 0.215,16.097c-0.859,9.23 -2.361,11.376 -15.668,23.824c-39.063,36.273 -115.901,77.053 -175.139,92.506c-47.433,12.449 -71.042,15.453 -124.056,15.668c-40.78,0.215 -52.37,-0.429 -74.262,-4.507c-91.647,-16.527 -166.982,-52.155 -232.659,-109.676c-26.829,-23.61 -258.63,-257.127 -294.688,-293.614c-65.676,-66.536 -76.837,-75.98 -98.944,-84.565c-15.668,-6.224 -19.746,-6.868 -40.994,-7.083c-20.82,-0.214 -25.541,0.43 -39.707,5.795c-36.487,13.308 -63.316,42.926 -71.901,79.199c-6.654,27.902 -3.649,48.506 11.804,84.35c27.688,64.174 40.78,125.558 40.78,192.738c0,30.906 -1.073,41.423 -7.726,81.988c-6.654,39.707 -26.185,96.155 -46.361,134.144c-29.619,55.375 -44.213,72.76 -144.016,173.207c-74.906,75.121 -86.926,86.496 -94.867,88.642c-18.673,5.151 -28.331,-0.858 -53.228,-34.126c-62.458,-82.847 -94.438,-179.86 -93.579,-284.385c0.214,-18.888 0.644,-36.916 1.073,-39.921Z" style="fill:#fff;fill-rule:nonzero;"/><path id="pWPOUjSYa" d="M4287.68,1942.64c-49.794,-5.795 -76.623,-11.59 -111.179,-23.61c-60.525,-21.033 -107.1,-47.648 -154.963,-88.642c-59.452,-51.082 -110.105,-122.339 -138.222,-195.313c-7.941,-20.176 -16.955,-45.931 -22.321,-67.824c-20.605,-84.135 -24.039,-167.197 -9.873,-251.761c5.366,-32.194 27.687,-109.891 47.004,-149.383c30.477,-62.028 69.755,-112.895 121.266,-157.324c67.823,-58.164 147.88,-94.651 240.386,-109.032c29.833,-4.722 116.544,-5.365 147.022,-1.287c100.232,14.165 185.44,59.237 241.244,127.705c9.229,11.59 17.6,20.819 18.673,20.819c1.073,-0 1.932,-60.311 1.932,-138.222l-0,-440.851l4.936,-0.858c4.507,-0.644 183.08,-0.644 233.947,-0l22.965,0.429l-0.429,726.094l-0.644,725.88l-259.702,-0l-0.644,-59.453c-0,0 2.361,-77.052 -2.147,-75.335c-1.931,0.858 -100.017,98.515 -147.021,122.124c-51.512,25.971 -110.106,37.561 -186.514,37.131c-21.678,-0.214 -42.067,-0.858 -45.716,-1.287Zm84.564,-229.225c13.522,1.073 84.994,-5.581 84.994,-5.581c32.194,-6.439 66.964,-21.248 95.725,-40.565c17.599,-11.805 56.448,-50.653 68.252,-68.252c11.59,-17.171 28.117,-50.438 35.629,-71.258c6.01,-17.17 16.741,-84.779 17.385,-96.154c1.502,-19.961 -3.22,-66.75 -8.8,-91.432c-12.234,-52.37 -37.775,-98.945 -75.121,-136.72c-38.848,-38.848 -86.496,-64.174 -140.797,-74.262c-27.902,-5.151 -86.067,-5.151 -111.822,0c-93.794,18.887 -170.202,81.774 -203.684,167.841c-3.864,9.873 -9.444,26.614 -12.878,40.78c-8.371,35.843 -10.732,89.5 -5.366,129.851c14.38,107.53 78.984,191.879 174.28,228.367c24.897,9.443 53.657,15.453 82.203,17.385Z" style="fill:#fff;fill-rule:nonzero;"/><path id="pVCjh55Si" d="M5529.32,1942.86c-4.078,-0.429 -16.097,-1.931 -26.829,-3.219c-154.534,-18.458 -287.819,-100.876 -365.301,-225.791c-13.951,-22.536 -36.058,-68.038 -44.643,-91.647c-8.585,-24.039 -20.175,-70.614 -24.897,-100.876c-7.941,-50.009 -7.727,-128.779 0.215,-189.948c11.59,-89.286 51.94,-185.441 105.813,-252.191c79.627,-98.944 187.801,-158.826 323.447,-179.431c35.629,-5.365 134.788,-5.58 169.558,0c60.311,9.229 106.028,23.18 152.388,45.931c85.852,42.282 153.675,104.954 200.464,185.655c44.858,77.267 65.677,159.256 65.677,258.415c0,0 -5.695,91.719 -6.338,92.578c-0.859,0.644 -191.766,1.645 -391.372,2.074l-363.154,0.644l-0.644,9.444c-0.858,11.161 10.088,56.662 18.888,79.842c11.375,29.619 28.545,55.804 53.228,80.916c34.77,35.628 73.403,56.018 128.134,68.252c28.761,6.224 84.35,6.224 113.754,-0.429c27.473,-6.01 52.799,-16.312 72.331,-29.19c19.316,-12.663 53.872,-47.218 63.959,-63.96c4.078,-6.868 9.444,-15.453 11.805,-19.102l4.507,-6.868l132.427,-0.644l132.427,-0.429l-0,5.151c-0,12.019 -27.687,75.979 -46.575,107.315c-22.965,38.419 -69.325,91.218 -105.813,120.837c-56.018,45.072 -134.787,83.062 -200.035,96.369c-40.994,8.156 -57.521,9.873 -111.178,10.517c-30.049,0.429 -58.165,0.215 -62.243,-0.215Zm-199.821,-625.003c0.644,0.859 486.352,0.644 486.352,0.644l-0.429,-15.024c-1.288,-41.853 -24.039,-92.72 -56.019,-125.13c-45.93,-46.574 -103.451,-69.111 -176.211,-69.111c-73.618,0 -138.651,25.112 -185.87,71.687c-18.673,18.458 -43.784,55.804 -52.584,78.984c-7.941,20.604 -17.385,56.018 -15.239,57.95Z" style="fill:#fff;fill-rule:nonzero;"/><path id="prhWisIBg" d="M6477.98,1940.71c-43.57,-5.151 -80.916,-15.453 -118.476,-32.409c-9.229,-4.293 -35.414,-18.458 -53.229,-30.263c-22.321,-14.595 -59.881,-51.726 -73.403,-72.33c-50.438,-77.053 -63.101,-158.827 -39.063,-253.264c26.185,-102.593 105.813,-177.499 229.44,-215.704c49.579,-15.238 100.018,-21.463 175.997,-21.463c88.642,-0.214 147.88,8.156 239.098,33.483l4.936,1.502l-1.073,-47.004c-1.073,-54.731 -4.292,-71.257 -19.746,-102.808c-19.531,-40.136 -57.521,-69.969 -108.388,-85.637c-25.756,-7.727 -48.077,-10.732 -82.633,-10.517c-44.428,-0 -76.194,6.653 -111.608,22.965c-32.194,15.024 -54.73,41.424 -66.75,78.34l-6.868,20.605l-123.627,0.644l-123.627,0.429l0,-7.297c0,-22.322 16.741,-81.56 31.98,-113.325c32.409,-67.179 92.935,-126.203 166.553,-161.617c55.16,-26.614 125.988,-45.501 176.641,-47.218c11.161,-0.43 60.526,-3.864 60.526,-3.864l34.984,1.503c85.638,3.648 156.251,18.887 219.996,47.648c8.371,3.863 15.454,7.726 15.454,8.37c-0,0.859 20.39,10.302 20.39,10.302c59.023,33.268 116.544,94.438 143.373,151.744c18.887,40.565 26.614,68.038 33.697,117.403c3.863,27.043 4.292,42.067 4.292,170.202c0,179.86 2.576,222.786 15.024,256.268c10.088,26.4 31.98,39.921 65.248,39.921c5.151,0 12.449,0.644 16.097,1.288l6.654,1.503l-0.43,109.676l-0.643,109.676l-52.585,-0.43c-55.374,-0.429 -85.852,-2.575 -115.9,-8.156c-38.634,-7.082 -75.979,-20.819 -99.159,-36.272c-18.029,-11.805 -42.068,-38.419 -53.229,-58.809c-5.365,-9.658 -11.375,-20.604 -13.521,-24.468l-4.078,-6.653l-8.8,10.517c-44.214,52.799 -98.301,93.793 -157.109,118.905c-20.605,9.014 -82.204,21.892 -84.779,23.395c-11.376,6.653 -97.013,8.585 -141.656,3.219Zm154.319,-200.465c42.067,-4.507 73.833,-18.458 108.173,-47.862c24.468,-21.034 50.009,-56.877 64.389,-90.574c12.664,-29.834 25.756,-72.331 23.61,-77.482c-0.859,-2.575 -59.882,-17.814 -98.301,-25.326c-49.794,-9.873 -117.403,-12.663 -154.534,-6.654c-57.306,9.23 -101.734,39.278 -118.046,79.843c-7.512,18.887 -10.732,47.219 -7.727,67.394c3.649,23.18 12.449,40.35 30.263,58.594c34.341,35.414 83.706,48.936 152.173,42.067Z" style="fill:#fff;fill-rule:nonzero;"/><path id="p6sKdoclo" d="M3457.28,1918.61c-1.717,-2.575 -1.931,-995.455 -0.214,-998.245c0.858,-1.503 45.501,-2.147 130.71,-2.147c121.695,0 129.636,0.215 130.495,3.864c1.717,6.653 0.644,993.094 -1.073,995.884c-1.288,1.932 -29.834,2.576 -130.281,2.576c-71.901,-0 -128.993,-0.859 -129.637,-1.932Z" style="fill:#fff;fill-rule:nonzero;"/><path id="prvlFZzI2" d="M3869.58,1597.52c-1.717,-4.292 -0.858,-6.224 2.361,-5.151c1.073,0.429 1.288,2.79 0.429,4.937c-1.288,4.078 -1.502,4.078 -2.79,0.214Z" style="fill:#fff;fill-rule:nonzero;"/><path id="pAxMrisxP" d="M3464.15,752.735c-3.649,-1.932 -3.864,-10.303 -3.864,-125.988c0,-93.579 0.644,-124.701 2.576,-126.632c3.863,-3.864 251.761,-1.503 251.761,-1.503l0,255.41l-123.412,0.43c-77.482,0.214 -124.915,-0.43 -127.061,-1.717Z" style="fill:#fff;fill-rule:nonzero;"/><path id="pWxxZad28" d="M1661.89,31.792c-1.931,-5.581 -1.717,-6.439 1.932,-6.439c5.151,-0 6.653,2.361 4.936,8.156c-1.717,6.438 -4.078,5.795 -6.868,-1.717Z" style="fill:#fff;fill-rule:nonzero;"/></g></svg>